<svg data-name="Layer 1" xmlns="http://www.w3.org/2000/svg" width="64" height="64" viewBox="0 0 512 512">
	<path d="M512 256c0 141.38-114.62 256-256 256S0 397.39 0 256 114.62 0 256 0s256 114.62 256 256z" fill="#4e8ce9" />
	<path
		d="M28 139.52L139.52 28A257.1 257.1 0 0028 139.52zM179.06 11.77L11.77 179.06a254.14 254.14 0 00-6.43 24.69L203.75 5.34a253.94 253.94 0 00-24.69 6.43zM231.24 1.2l-230 230q-.97 9.64-1.17 19.44L250.63.07q-9.79.2-19.39 1.13zm42.2-.6L.6 273.43q.56 8.39 1.66 16.63L290.05 2.26Q281.83 1.17 273.44.6zm36.5 5.11L5.71 309.95q1.59 7.41 3.6 14.66L324.6 9.31q-7.25-2.01-14.66-3.6zm32.38 9.22L14.94 342.33Q17.32 349 20 355.47L355.46 20q-6.46-2.69-13.14-5.07zm29.09 12.51l-344 344q3 6 6.39 11.86L383.28 33.83q-5.84-3.35-11.87-6.39zm26.28 15.33L42.77 397.69q3.63 5.46 7.53 10.72l358.12-358.1q-5.26-3.91-10.73-7.54zm23.74 17.87L60.65 421.43q4.18 4.93 8.6 9.65L431.08 69.25q-4.72-4.43-9.65-8.61zm21.32 20.27L80.92 442.75q4.72 4.42 9.65 8.6l360.8-360.77q-4.19-4.94-8.62-9.67zm18.94 22.67L103.58 461.69q5.26 3.91 10.73 7.54l354.92-354.92q-3.64-5.46-7.54-10.73zm16.48 25.14L128.71 478.16q5.84 3.35 11.88 6.4l344-344q-3.08-6-6.42-11.84zM492 156.53L156.53 492q6.48 2.73 13.14 5.11l327.39-327.44q-2.38-6.67-5.06-13.14zm10.69 30.88L187.4 502.69q7.24 2 14.66 3.6l304.23-304.23q-1.59-7.41-3.6-14.65zm7.05 34.59l-287.8 287.74q8.23 1.09 16.62 1.66L511.4 238.56q-.57-8.38-1.66-16.56zm1.07 58.75q.92-9.59 1.13-19.38L261.37 511.93q9.79-.2 19.39-1.13zM332.92 500.23l167.31-167.31a254 254 0 006.42-24.68L308.23 506.66a254.22 254.22 0 0024.69-6.43zM484 372.49L372.48 484A257.12 257.12 0 00484 372.49z"
		fill="#4e8ce9" />
	<path
		d="M176.21 316.33l19.45 19.47a16 16 0 0022.66 0l36.39-36.37s0-.06.07-.08l3.72-3.73a12.84 12.84 0 0118.12 0l4.51 4.5a12.85 12.85 0 010 18.13L277.4 322l-.07.06L241 358.44a48.09 48.09 0 01-67.93 0L153.56 339a48.1 48.1 0 010-67.93l36.39-36.38.07-.08 3.73-3.73a12.84 12.84 0 0118.11 0l4.51 4.51a12.81 12.81 0 010 18.11l-3.71 3.73-.08.07-36.38 36.38a16 16 0 00.01 22.65zm159.58-98l-36.38 36.37s-.06 0-.08.07l-3.71 3.72a12.84 12.84 0 000 18.12l4.51 4.52a12.84 12.84 0 0018.1 0l3.74-3.71a.19.19 0 01.07-.09l36.4-36.33a48.14 48.14 0 000-67.94L339 153.57a48.07 48.07 0 00-67.92 0L234.65 190l-.07.06-3.72 3.73a12.84 12.84 0 000 18.12l4.51 4.51a12.86 12.86 0 0018.13 0l3.71-3.73a.46.46 0 01.07-.08l36.39-36.37a16 16 0 0122.64 0l19.46 19.46a16 16 0 01.02 22.62zM294.14 211a12.82 12.82 0 00-18.1 0l-63.71 63.72a12.82 12.82 0 000 18.1l6.81 6.82a12.86 12.86 0 0018.11 0L301 236a12.86 12.86 0 000-18.12z"
		fill="#fff" />
</svg>